<svg xmlns="http://www.w3.org/2000/svg" viewBox="-50 0 1350 1100">
  <path fill="#d4af37" d="M 1228.941,251 C 1229.684,251 1230,336.042 1230,535.813 C 1230,630.751 1230,725.688 1230,820.626 C 1207.917,834.653 1185.833,848.681 1163.750,862.708 C 1127.312,885.853 1087.150,911.293 1074.500,919.240 C 1045.579,937.409 973.883,983.019 930,1011.165 C 895.318,1033.410 852.470,1060.680 833.724,1072.436 C 827.797,1076.153 822.314,1078.951 821.538,1078.653 C 819.673,1077.938 700.309,998.278 664,973.517 C 648.325,962.828 634.929,954.277 634.230,954.517 C 633.531,954.757 621.271,963.062 606.986,972.972 C 561.647,1004.426 452.762,1077.003 448.402,1078.676 C 447.646,1078.966 436.109,1072.237 422.764,1063.723 C 409.419,1055.209 373.300,1032.157 342.500,1012.495 C 275.662,969.828 228.823,940.162 76,843.706 C 60.325,833.813 45.517,824.362 43.094,822.704 C 41.625,821.699 40.158,820.695 38.689,819.690 C 38.905,810.825 39.122,801.960 39.338,793.095 C 39.695,778.468 39.989,650.513 39.993,508.750 C 39.997,334.343 40.329,251 41.019,251 C 41.580,251 64.192,262.411 91.269,276.358 C 118.346,290.305 162.325,312.864 189,326.488 C 215.675,340.112 253.025,359.246 272,369.008 C 314.815,391.036 362.690,415 363.880,415 C 364.837,415 386.073,383.067 435.702,307 C 467.342,258.505 501.500,206.846 570.594,103 C 592.002,70.825 615.093,36.030 621.908,25.677 C 633.804,7.605 634.369,6.927 636.054,8.677 C 637.019,9.680 648.177,26.329 660.849,45.675 C 673.521,65.021 698.855,103.271 717.145,130.675 C 748.507,177.664 803.971,261.734 871.217,364.213 C 887.561,389.121 902.031,410.849 903.371,412.498 C 904.183,413.497 904.995,414.497 905.807,415.496 C 912.422,412.116 919.039,408.736 925.654,405.356 C 936.569,399.779 967.325,384.083 994,370.478 C 1020.675,356.873 1061.175,336.178 1084,324.489 C 1182.887,273.849 1227.952,251 1228.941,251 ZM 126.479,382.370 C 125.172,382.871 125.025,406.375 125.247,578.702 C 125.331,643.956 125.416,709.210 125.500,774.464 C 130.167,777.445 134.833,780.427 139.500,783.408 C 154.743,793.146 185.432,812.655 250.500,853.972 C 321.710,899.189 364.863,926.666 406,952.983 C 427.725,966.881 446.034,978.458 446.686,978.709 C 447.338,978.960 467.363,965.917 491.186,949.726 C 515.009,933.535 539.112,917.229 544.750,913.491 C 550.388,909.753 555,906.155 555,905.494 C 555,904.370 514.488,877.401 389.752,795.484 C 372.503,784.156 355.254,772.828 338.005,761.500 C 338.027,716.053 338.049,670.607 338.071,625.160 C 338.131,501.359 337.990,488.714 336.539,487.660 C 335.660,487.022 325.842,481.913 314.721,476.307 C 303.600,470.701 257.030,447.143 211.232,423.957 C 163.964,400.026 127.322,382.047 126.479,382.370 ZM 424.750,521.007 C 423.095,521.001 423,526.469 423,621.901 C 423,655.535 423,689.168 423,722.802 C 434.250,730.097 445.500,737.393 456.750,744.688 C 475.312,756.725 507.968,777.807 529.317,791.537 C 550.666,805.267 574.405,820.617 582.070,825.649 C 591.426,831.791 596.252,834.420 596.753,833.649 C 597.752,832.112 598.267,631.803 597.276,630.406 C 596.849,629.804 585.700,622.417 572.500,613.990 C 517.454,578.848 500.510,568.081 482,556.482 C 471.275,549.762 454.400,539.032 444.500,532.638 C 434.600,526.244 425.712,521.011 424.750,521.007 ZM 495.250,356.129 C 464.862,401.836 440,439.782 440,440.453 C 440,441.124 447.987,446.784 457.750,453.031 C 467.513,459.278 484.275,470.086 495,477.049 C 514.156,489.486 548.521,511.754 568.776,524.854 C 574.428,528.510 591.527,539.703 606.774,549.729 C 616.014,555.805 625.255,561.883 634.495,567.959 C 636.996,566.349 639.496,564.740 641.997,563.130 C 646.123,560.474 683.025,536.588 724,510.051 C 764.975,483.514 805.824,457.069 814.775,451.285 C 820.200,447.780 825.625,444.275 831.050,440.770 C 830.458,439.888 829.867,439.005 829.275,438.123 C 821.681,426.803 710.112,259.044 677.060,209.250 C 654.335,175.012 635.379,147 634.936,147 C 634.493,147 615.315,175.356 592.316,210.013 C 569.317,244.670 525.638,310.422 495.250,356.129 ZM 677.045,627.477 C 675.363,628.329 673.682,629.182 672,630.034 C 672,664.009 672,697.983 672,731.958 C 672,797.674 672.349,834.098 672.983,834.490 C 673.524,834.824 680.386,830.865 688.233,825.693 C 717.532,806.381 754.980,782.001 769.500,772.786 C 777.750,767.550 793.807,757.161 805.182,749.699 C 816.557,742.237 830.282,733.339 835.682,729.925 C 841.082,726.511 845.725,723.519 846,723.276 C 846.672,722.682 847.011,523.996 846.344,521.678 C 846.047,520.646 845.225,520.084 844.448,520.382 C 843.694,520.671 830.348,529.183 814.789,539.298 C 751.119,580.689 681.778,625.079 677.045,627.477 ZM 750.250,880.998 C 730.862,893.841 715,904.880 715,905.528 C 715,906.176 718.263,908.868 722.250,911.511 C 726.237,914.154 749.916,930.230 774.868,947.235 C 799.820,964.240 820.857,978.391 821.615,978.682 C 822.373,978.973 828.958,975.410 836.247,970.764 C 873.604,946.953 938.959,905.142 957.474,893.208 C 969.009,885.773 989.484,872.719 1002.974,864.200 C 1016.464,855.681 1041.675,839.647 1059,828.567 C 1076.325,817.488 1102.531,800.790 1117.235,791.461 C 1126.147,785.807 1135.058,780.154 1143.970,774.500 C 1143.975,709.083 1143.980,643.667 1143.985,578.250 C 1143.999,398.974 1143.861,382 1142.399,382 C 1140.092,382 950.479,477.851 935.250,486.716 C 933.833,487.541 932.417,488.365 931,489.190 C 931,534.664 931,580.137 931,625.611 C 931,671.085 931,716.557 931,762.031 C 923.583,766.915 916.167,771.798 908.750,776.682 C 896.513,784.740 863.775,806.254 836,824.490 C 808.225,842.726 769.638,868.155 750.250,880.998 Z" />
</svg>
